<svg id="Objects" xmlns="http://www.w3.org/2000/svg" viewBox="0 0 84.28 133.63"><path d="M17.53,31.67c-2.68-5.31-10.28-6.94-13.85-1.43C-.71,37,.78,47.66.62,55.34c-.25,13.21.52,26.4,1.24,39.58.56,10.07,2.28,19.79,9.51,27.27,6.41,6.65,14.14,10.68,23.43,10.93a37.74,37.74,0,0,0,24.47-8.68c13.46-11.06,19-30.62,22.51-47.06,1.39-6.43,5.31-22.88-4-25.45-12.2-3.37-12.2,17.85-15.51,24.14-.77,1.46,1.45,2.76,2.22,1.29,3.25-6.18,2.75-13.67,6.31-19.77,1.67-2.85,5.79-4.66,8.37-1.92,2.12,2.26,1.84,6.68,1.74,9.51-.22,6.65-1.85,13.31-3.63,19.69-2.7,9.71-6,19.54-11.41,28.09A36.94,36.94,0,0,1,38.3,130.41c-11.17,1.19-21.25-4.47-27.9-13.25C3.1,107.51,4.27,92.75,3.7,81.3,3.08,69,3.38,56.72,3.44,44.39A33.93,33.93,0,0,1,4.76,33.64C6.55,28.32,12.82,28,15.31,33c.75,1.48,3,.18,2.22-1.29Z"/><path d="M35.68,133.63h-.9c-8.91-.24-16.91-4-23.77-11.08C3.41,114.67,1.87,104.18,1.37,95l-.11-1.9C.58,80.7-.12,67.92.12,55.33c0-1.63,0-3.38,0-5.23C-.09,43.22-.28,35.42,3.26,30a7.7,7.7,0,0,1,7-3.64A9.37,9.37,0,0,1,18,31.44h0a1.8,1.8,0,0,1-.85,2.47,1.62,1.62,0,0,1-2.25-.72A5.4,5.4,0,0,0,9.73,30a5.21,5.21,0,0,0-4.5,3.84A33.76,33.76,0,0,0,3.94,44.4c0,2.5,0,5-.06,7.51-.08,9.61-.17,19.56.32,29.36.1,2,.14,4.07.19,6.26.22,10.07.48,21.48,6.41,29.33,7.11,9.4,17.1,14.15,27.45,13a36.37,36.37,0,0,0,27.21-17.22c5.6-8.82,8.88-19.08,11.35-27.95,1.74-6.27,3.39-13,3.61-19.57l0-.46c.1-2.67.25-6.71-1.63-8.7a3.65,3.65,0,0,0-3.18-1.17,6.22,6.22,0,0,0-4.38,3C69.43,61,68.67,64.51,67.94,68a36.92,36.92,0,0,1-3,9.64,1.64,1.64,0,0,1-2.3.69,1.79,1.79,0,0,1-.8-2.45,36.72,36.72,0,0,0,2.25-7.62c1.47-6.34,3.13-13.53,7.55-16.16a7.82,7.82,0,0,1,6.28-.61c9.44,2.61,6,18.54,4.5,25.35l-.15.69C78.56,94.73,73,113.84,59.59,124.83A38.31,38.31,0,0,1,35.68,133.63ZM9.8,27.32a6.61,6.61,0,0,0-5.7,3.19C.73,35.7.91,43.34,1.07,50.07c.05,1.87.09,3.63.05,5.28C.88,67.9,1.58,80.66,2.26,93l.1,1.9c.52,9.49,2,19.33,9.37,26.95,6.67,6.91,14.44,10.53,23.08,10.77A37,37,0,0,0,59,124.05c13.14-10.79,18.67-29.7,22.34-46.78l.15-.69c1.42-6.52,4.75-21.81-3.78-24.17a6.79,6.79,0,0,0-5.51.51c-4.05,2.41-5.73,9.69-7.08,15.53a37.7,37.7,0,0,1-2.34,7.85.8.8,0,0,0,.38,1.11.66.66,0,0,0,1-.28A35.7,35.7,0,0,0,67,67.75c.75-3.52,1.53-7.17,3.42-10.41a7.17,7.17,0,0,1,5.14-3.49,4.6,4.6,0,0,1,4,1.47c2.16,2.3,2,6.59,1.9,9.43l0,.45C81.2,71.9,79.53,78.68,77.77,85,75.28,94,72,104.29,66.3,113.23a37.35,37.35,0,0,1-27.95,17.68c-10.69,1.14-21-3.76-28.35-13.45-6.13-8.1-6.38-19.69-6.61-29.91-.05-2.18-.09-4.24-.19-6.23-.49-9.83-.4-19.79-.31-29.42q0-3.75,0-7.51A34.54,34.54,0,0,1,4.29,33.48,6.19,6.19,0,0,1,9.66,29a6.42,6.42,0,0,1,6.1,3.77.63.63,0,0,0,.91.29.83.83,0,0,0,.41-1.13,8.35,8.35,0,0,0-6.87-4.56Z"/><path d="M20,64.46c-.69-7-.78-13.95-1.07-21-.34-8.33-3.36-19.07.6-26.85,3.28-6.45,8.71-3.55,10.45,1.93,1.48,4.66,1.7,10,2.15,14.83.88,9.46.89,19,.9,28.49a1.28,1.28,0,0,0,2.56,0c0-12.26-.19-24.5-1.83-36.67C33,19.49,30.9,7.57,22.26,10.62c-8.88,3.13-7,16.34-6.6,23.33.61,10.16.77,20.37,1.78,30.51.16,1.63,2.73,1.64,2.56,0Z"/><path d="M18.85,66.19A2,2,0,0,1,18,66a1.82,1.82,0,0,1-1.07-1.5c-.65-6.59-1-13.31-1.25-19.81-.15-3.51-.32-7.15-.53-10.72,0-.62-.09-1.29-.14-2-.55-7.52-1.38-18.87,7.07-21.85a6.77,6.77,0,0,1,6,.38c4.08,2.5,5.47,9.55,6.16,14.63,1.69,12.48,1.84,25,1.84,36.74a1.78,1.78,0,0,1-3.56,0c0-9.28,0-18.88-.9-28.44-.08-.83-.15-1.67-.22-2.52A56.17,56.17,0,0,0,29.5,18.72c-.94-3-3-5.08-5.06-5.25-1.71-.14-3.26,1-4.46,3.39-2.85,5.59-2,12.68-1.21,19.54.29,2.49.57,4.84.66,7.07.07,1.69.12,3.37.18,5.06.18,5.2.37,10.58.89,15.88h0a1.55,1.55,0,0,1-.61,1.46A1.82,1.82,0,0,1,18.85,66.19Zm6-55.57a7.46,7.46,0,0,0-2.47.47c-7.73,2.72-6.93,13.62-6.4,20.82.05.71.1,1.39.13,2,.22,3.58.39,7.22.54,10.74.29,6.48.6,13.19,1.24,19.75a.83.83,0,0,0,.49.69,1,1,0,0,0,.88,0,.58.58,0,0,0,.21-.55h0c-.53-5.34-.72-10.73-.9-16-.05-1.68-.11-3.36-.18-5.05-.09-2.19-.36-4.52-.65-7-.79-6.68-1.67-14.25,1.31-20.1,1.38-2.72,3.32-4.12,5.43-3.94,2.49.2,4.87,2.59,5.93,6a56.86,56.86,0,0,1,2,12.43l.21,2.51c.9,9.61.9,19.23.91,28.53a.78.78,0,0,0,1.56,0c0-11.71-.15-24.18-1.83-36.6-.38-2.82-1.54-11.38-5.69-13.92A5,5,0,0,0,24.89,10.62Z"/><path d="M33.61,21.69c-.26-5.72.17-12.35,4.09-16.9,4.63-5.38,8,2.21,8.95,6.1,4.21,16.5,1.06,34.23,1.06,51a1.28,1.28,0,0,0,2.56,0c0-10.9,1-21.75.92-32.65a98.83,98.83,0,0,0-1.4-15.92C49.21,10,48.44,6,46.23,3.22c-2.74-3.43-6.61-3.55-9.86-.73C31.28,6.9,30.76,15.55,31,21.69c.07,1.65,2.64,1.66,2.57,0Z"/><path d="M49,63.63a1.7,1.7,0,0,1-1.78-1.74c0-5,.28-10.21.56-15.24.66-11.86,1.33-24.13-1.6-35.64-.84-3.28-2.7-7-4.81-7.53-1-.24-2.14.31-3.28,1.64-4,4.66-4.19,11.68-4,16.55h0a1.65,1.65,0,0,1-1.64,1.76,1.8,1.8,0,0,1-1.93-1.72C30.12,12.24,32,5.64,36,2.11A7.55,7.55,0,0,1,41.7,0a7.14,7.14,0,0,1,4.92,2.88c2.22,2.78,3,6.63,3.66,10.33a100.66,100.66,0,0,1,1.41,16c.07,5.76-.19,11.61-.45,17.26-.23,5-.47,10.26-.47,15.39A1.7,1.7,0,0,1,49,63.63ZM40.86,2.43a3,3,0,0,1,.73.08c3.56.84,5.36,7.5,5.55,8.26,3,11.65,2.29,24,1.63,35.94-.28,5-.56,10.19-.56,15.18a.78.78,0,0,0,1.56,0c0-5.15.24-10.38.47-15.44.26-5.63.52-11.47.45-17.2a99.7,99.7,0,0,0-1.4-15.84c-.61-3.58-1.38-7.28-3.45-9.87A6.22,6.22,0,0,0,41.61,1,6.6,6.6,0,0,0,36.7,2.87c-3.83,3.32-5.57,9.64-5.16,18.8a.81.81,0,0,0,.89.76.66.66,0,0,0,.68-.72h0c-.23-5,0-12.31,4.21-17.24A4.86,4.86,0,0,1,40.86,2.43Z"/><path d="M50.78,15.85c.45-6.31,6.31-7.67,9.49-2.73a22.08,22.08,0,0,1,3,8.86c.76,5.8.58,11.84.65,17.68C64,46.45,64,53.25,64,60.05c0,3.27-.4,6.84.12,10.09.26,1.63,2.74.94,2.47-.68-.71-4.4,0-10.8,0-15.69,0-8.47,0-16.94-.32-25.4-.23-6.17-.66-13.28-4.9-18.21-5.17-6-12.6-1.36-13.1,5.69-.12,1.65,2.45,1.64,2.57,0Z"/><path d="M65.14,71.57a1.63,1.63,0,0,1-.59-.1,1.49,1.49,0,0,1-1-1.25A38,38,0,0,1,63.38,63c0-1,.07-2,.08-2.93V59.1c0-6.37,0-13-.06-19.44,0-1.25,0-2.51,0-3.77A110.26,110.26,0,0,0,62.75,22a21.49,21.49,0,0,0-2.9-8.65c-1.36-2.1-3.35-3.12-5.19-2.65s-3.19,2.46-3.39,5.14h0a1.82,1.82,0,0,1-2,1.7,1.59,1.59,0,0,1-1.55-1.77c.29-4,2.73-7.47,6.09-8.57,2.8-.93,5.68,0,7.89,2.59,4.17,4.85,4.75,11.53,5,18.52.3,8.16.33,16.34.32,25.42,0,1.58-.07,3.27-.14,5.06a56.85,56.85,0,0,0,.16,10.55,1.81,1.81,0,0,1-.66,1.74A2,2,0,0,1,65.14,71.57ZM55.57,9.63a6.3,6.3,0,0,1,5.12,3.22,22.65,22.65,0,0,1,3.06,9.06,112.52,112.52,0,0,1,.63,14c0,1.27,0,2.52,0,3.77.08,6.49.07,13.08.06,19.46v.94c0,1,0,2-.08,3a37.5,37.5,0,0,0,.19,7.05.53.53,0,0,0,.33.47.91.91,0,0,0,.86-.19.81.81,0,0,0,.3-.8,58.21,58.21,0,0,1-.17-10.75c.07-1.78.14-3.47.14-5,0-9.07,0-17.24-.32-25.39-.26-6.8-.82-13.29-4.78-17.9-2-2.28-4.39-3.1-6.82-2.29-2.93,1-5.15,4.13-5.4,7.69a.61.61,0,0,0,.62.7.85.85,0,0,0,1-.77c.22-3.13,1.81-5.44,4.13-6A4.6,4.6,0,0,1,55.57,9.63Z"/><path d="M61.37,88.22c-.38-4.72-5.27-8.17-9.78-8-6.69.27-10.54,5.47-14.14,10.45-3.84-7.9-16.25-10.86-21.11-1.9C13.39,94.23,15,99.58,19,103.94a170.06,170.06,0,0,0,16.45,15.3,1.18,1.18,0,0,0,.85.29,1.2,1.2,0,0,0,.66-.14C48.21,113.5,62.53,102.6,61.37,88.22ZM36.5,116.75c-3-2.57-5.87-5.38-8.71-8.17-3.47-3.39-7.84-6.27-9.89-10.79-2.55-5.62,2.15-11.44,7.71-12,4.69-.5,8.86,3.48,10.13,7.59-.1,1.12,1.43,2.06,2.25,1,3.27-4.42,6.24-10,12-11.34,6.53-1.57,9.45,4.37,8.52,9.82C56.62,103.82,45.8,111.8,36.5,116.75Z"/><path d="M36.41,120h-.15a1.6,1.6,0,0,1-1.12-.41,169,169,0,0,1-16.5-15.34c-4.58-5-5.55-10.55-2.74-15.74a10.72,10.72,0,0,1,9.89-5.76,14.13,14.13,0,0,1,11.72,7c3.41-4.69,7.34-9.73,14.06-10,4.51-.19,9.88,3.24,10.3,8.45h0c1.31,16.22-16.82,27.54-24.67,31.65A1.63,1.63,0,0,1,36.41,120Zm-.14-1a.72.72,0,0,0,.46-.08c7.68-4,25.4-15.07,24.14-30.69h0c-.37-4.64-5.19-7.68-9.26-7.53C45.06,81,41.23,86.29,37.85,91l-.49.68L37,90.9a13.25,13.25,0,0,0-11.23-7.12,9.58,9.58,0,0,0-9,5.24c-2.59,4.78-1.67,10,2.6,14.59a167,167,0,0,0,16.4,15.24A.7.7,0,0,0,36.27,119Zm.17-1.68-.26-.22c-2.77-2.34-5.4-4.91-7.93-7.4l-.81-.79c-.9-.88-1.89-1.74-2.84-2.58-2.75-2.42-5.6-4.93-7.16-8.36a8.29,8.29,0,0,1,.41-7.69,10.32,10.32,0,0,1,7.71-5.06c5-.53,9.33,3.62,10.66,8l0,.09v.1a.88.88,0,0,0,.58.85.62.62,0,0,0,.77-.25c.52-.7,1-1.44,1.56-2.18,2.8-4,5.7-8.14,10.74-9.35a6.91,6.91,0,0,1,6.69,1.46c2.1,2,3,5.4,2.43,8.93-1.94,11.35-13.19,19.5-22.28,24.34Zm-10-31.14a6.45,6.45,0,0,0-.76,0,9.28,9.28,0,0,0-7,4.56,7.29,7.29,0,0,0-.37,6.77c1.47,3.24,4.24,5.67,6.91,8,1,.84,2,1.72,2.88,2.62L29,109c2.44,2.4,5,4.87,7.61,7.13C45.4,111.4,56.17,103.51,58,92.69c.54-3.17-.3-6.32-2.14-8a6,6,0,0,0-5.77-1.22c-4.66,1.12-7.45,5.1-10.15,8.95-.53.75-1,1.49-1.58,2.21a1.59,1.59,0,0,1-1.92.58,1.9,1.9,0,0,1-1.24-1.76C34.07,89.73,30.54,86.21,26.43,86.21Z"/></svg>