<?xml version="1.0" encoding="utf-8"?>
<!-- Generator: Adobe Illustrator 25.4.1, SVG Export Plug-In . SVG Version: 6.00 Build 0)  -->
<svg version="1.1" id="Calque_1" xmlns="http://www.w3.org/2000/svg" xmlns:xlink="http://www.w3.org/1999/xlink" x="0px" y="0px"
	 viewBox="0 0 7.9 9.3" style="enable-background:new 0 0 7.9 9.3;" xml:space="preserve">
<style type="text/css">
	.st0{fill-rule:evenodd;clip-rule:evenodd;}
</style>
<path id="_" class="st0" d="M0.7,0C0.6,0,0.5,0,0.4,0C0.3,0.1,0.2,0.2,0.1,0.3C0,0.4,0,0.6,0,0.7v7.9C0,8.7,0,8.9,0.1,9
	c0.1,0.1,0.2,0.2,0.3,0.2c0.1,0,0.2,0.1,0.3,0.1c0.2,0,0.4-0.1,0.5-0.2l2.7-2.6l2.7,2.6c0.2,0.2,0.5,0.3,0.8,0.1
	c0.1,0,0.2-0.1,0.3-0.2c0.1-0.1,0.1-0.2,0.1-0.4V0.7c0-0.1,0-0.3-0.1-0.4C7.7,0.2,7.6,0.1,7.4,0C7.3,0,7.2,0,7.2,0H0.7z"/>
</svg>
